<?xml version="1.0" standalone="no"?>
<!DOCTYPE svg PUBLIC "-//W3C//DTD SVG 20010904//EN"
 "http://www.w3.org/TR/2001/REC-SVG-20010904/DTD/svg10.dtd">
<svg version="1.0" xmlns="http://www.w3.org/2000/svg"
 width="1089.000000pt" height="1280.000000pt" viewBox="0 0 1089.000000 1280.000000"
 preserveAspectRatio="xMidYMid meet">
<metadata>
Created by potrace 1.15, written by Peter Selinger 2001-2017
</metadata>
<g transform="translate(0.000000,1280.000000) scale(0.100000,-0.100000)"
fill="#000000" stroke="none">
<path d="M5511 12230 c-31 -5 -51 -15 -68 -36 -39 -47 -41 -63 -27 -169 8 -55
19 -147 24 -205 5 -58 12 -128 16 -156 4 -34 3 -54 -5 -58 -6 -4 -11 -17 -11
-30 0 -13 -9 -31 -21 -42 -18 -16 -40 -19 -153 -21 -72 -2 -140 -3 -151 -2
-136 6 -289 2 -329 -8 -28 -7 -62 -25 -77 -39 -15 -15 -38 -32 -51 -38 -15 -8
-27 -26 -34 -57 -7 -25 -17 -55 -23 -67 -6 -11 -11 -25 -11 -30 0 -18 130
-111 235 -167 108 -59 161 -81 260 -111 89 -28 98 -57 70 -214 -9 -47 -27
-128 -40 -180 -40 -154 -43 -179 -36 -305 6 -105 10 -127 35 -175 49 -94 113
-170 145 -170 10 0 35 -18 56 -41 40 -41 119 -90 165 -104 14 -4 27 -11 30
-16 8 -12 66 -53 128 -89 68 -41 99 -96 83 -149 -5 -20 -25 -50 -43 -67 -20
-18 -63 -91 -106 -177 -54 -108 -85 -158 -118 -189 -32 -30 -49 -57 -60 -93
-16 -56 -92 -196 -126 -232 -14 -15 -33 -23 -55 -23 -31 0 -35 4 -57 53 -12
29 -42 77 -64 107 -23 30 -42 62 -42 70 0 8 -6 26 -13 40 -8 14 -17 41 -20 59
-4 18 -15 45 -25 59 -17 24 -52 99 -108 232 -37 88 -358 380 -418 380 -21 0
-108 47 -179 97 -26 18 -53 33 -61 33 -7 0 -29 11 -49 24 -19 13 -37 22 -40
20 -2 -3 -37 3 -77 12 -82 18 -242 13 -315 -11 -22 -7 -60 -16 -85 -20 -76
-11 -140 -35 -260 -98 -96 -50 -131 -76 -209 -151 -51 -50 -117 -123 -146
-162 -29 -39 -67 -82 -85 -94 -18 -13 -46 -50 -63 -85 -64 -126 -110 -210
-123 -226 -21 -24 -44 -108 -44 -165 0 -59 15 -95 54 -125 l26 -21 96 39 c66
26 113 52 149 84 29 25 81 62 116 82 62 34 117 87 236 224 l52 61 87 16 c48 9
89 14 91 12 3 -2 35 11 71 29 78 38 207 61 260 46 53 -16 294 -148 354 -196
56 -44 84 -85 153 -225 18 -36 38 -92 45 -125 7 -33 18 -66 23 -73 15 -19 0
-90 -33 -157 -16 -34 -38 -94 -49 -135 -21 -86 -107 -258 -184 -368 -81 -118
-501 -528 -584 -570 -23 -12 -68 -45 -100 -73 -32 -28 -69 -55 -82 -60 -13 -5
-85 -52 -160 -103 -75 -51 -188 -121 -251 -155 -63 -35 -128 -73 -145 -85 -16
-13 -46 -31 -65 -41 -19 -9 -48 -30 -65 -45 -16 -15 -75 -54 -130 -85 -55 -32
-138 -83 -185 -115 -47 -32 -105 -69 -130 -84 -183 -108 -635 -512 -831 -741
-197 -230 -249 -294 -249 -306 0 -28 -43 -78 -76 -89 -31 -10 -40 -22 -79
-106 -25 -52 -45 -97 -45 -100 0 -16 -68 -176 -92 -215 -25 -41 -67 -163 -89
-259 -4 -19 -26 -91 -49 -160 -84 -254 -147 -771 -137 -1124 6 -203 23 -394
41 -460 8 -28 20 -85 26 -126 26 -161 140 -551 190 -649 16 -31 46 -74 67 -96
46 -49 117 -154 133 -198 54 -150 236 -389 504 -665 159 -164 268 -245 521
-389 226 -129 589 -253 881 -302 215 -36 335 -44 557 -38 258 6 351 23 562
100 196 72 212 79 330 146 55 32 141 79 190 106 50 27 124 73 165 104 41 30
120 84 175 119 116 75 154 108 248 212 166 182 217 238 298 324 94 100 109
120 226 311 44 72 138 220 210 330 72 110 165 265 208 345 42 80 81 150 85
155 8 11 170 332 336 670 l109 220 0 95 c0 110 29 203 90 291 19 28 35 56 35
63 0 6 27 34 60 61 46 39 60 58 65 87 10 55 90 126 209 183 124 59 154 65 189
34 14 -13 60 -91 102 -174 56 -111 77 -164 82 -205 4 -37 12 -59 25 -68 27
-20 35 -41 47 -126 10 -71 9 -81 -6 -99 -33 -36 -128 -103 -208 -147 -86 -47
-290 -219 -324 -273 -36 -59 -59 -139 -59 -210 0 -60 3 -70 26 -87 13 -11 31
-20 39 -20 7 0 37 -13 66 -30 66 -37 145 -41 192 -10 41 27 56 25 94 -14 33
-34 33 -34 26 -105 -6 -57 -4 -76 9 -96 9 -13 16 -42 16 -63 0 -53 18 -102 51
-135 24 -23 36 -27 84 -27 69 0 163 45 198 94 12 17 55 69 95 116 41 46 82
101 93 122 20 39 54 68 79 68 19 -1 54 -30 63 -53 7 -19 105 -67 135 -67 10 0
23 -5 29 -11 6 -6 40 -12 76 -13 67 -1 110 14 123 43 18 42 27 129 26 268 -1
175 -9 163 100 141 l58 -12 52 58 c55 62 97 86 151 86 56 0 163 81 185 140 5
14 6 52 2 84 -6 56 -9 62 -61 108 -30 27 -65 51 -79 54 -117 24 -179 54 -180
86 0 4 30 40 66 80 104 114 135 215 99 316 -29 79 -42 91 -117 104 l-66 11
-148 -83 c-82 -46 -183 -105 -225 -131 -59 -38 -85 -49 -117 -49 -29 0 -44 5
-50 17 -10 20 -28 112 -37 193 -8 73 -53 397 -66 480 -6 36 -17 76 -26 90 -9
13 -36 107 -60 209 -41 175 -45 187 -81 224 -53 55 -101 77 -167 77 -68 0
-308 -53 -542 -120 -95 -28 -180 -47 -190 -43 -40 14 -62 45 -68 97 -10 77 13
467 29 514 8 22 20 93 26 158 14 143 34 253 65 354 13 41 29 104 35 140 6 36
32 118 57 183 58 149 69 155 150 76 30 -30 79 -83 108 -119 29 -36 86 -101
126 -146 41 -45 93 -106 117 -137 41 -52 47 -56 105 -66 34 -7 139 -12 232
-13 160 -2 175 0 247 25 43 14 90 38 105 52 63 58 163 83 209 50 21 -14 72
-110 101 -190 8 -22 21 -82 28 -134 11 -74 24 -115 60 -189 25 -51 42 -98 39
-103 -3 -5 7 -24 23 -42 15 -18 39 -49 53 -70 29 -42 24 -41 81 -24 52 16 135
77 165 121 33 49 62 155 89 323 6 36 12 45 46 62 58 31 98 27 155 -14 59 -41
163 -95 185 -95 48 0 113 102 126 196 4 33 1 50 -13 71 -11 16 -28 46 -40 68
-12 22 -37 69 -57 105 -35 63 -45 103 -29 127 4 6 35 16 70 23 52 9 85 26 201
101 152 98 167 117 165 199 -3 68 -22 127 -53 162 -27 30 -32 31 -112 34 -46
1 -111 7 -144 12 -33 6 -96 14 -140 17 -44 4 -83 12 -87 19 -4 6 -8 35 -8 65
0 46 7 66 44 130 77 133 99 194 92 246 -13 81 -101 155 -184 155 -50 0 -181
-61 -305 -141 -85 -55 -93 -58 -105 -42 -28 40 -209 216 -236 230 -68 35 -218
-8 -263 -76 -34 -51 -39 -95 -16 -155 11 -28 32 -82 47 -120 38 -96 44 -155
20 -195 -18 -31 -19 -31 -99 -31 -44 0 -132 -5 -195 -10 -131 -12 -227 -1
-297 34 -35 18 -52 38 -105 126 -35 58 -95 148 -134 200 -119 158 -122 171
-110 425 5 115 8 134 44 234 22 63 30 75 58 87 47 20 170 17 310 -5 66 -10
157 -25 204 -32 117 -19 259 -15 342 10 37 11 105 42 150 69 46 27 108 62 138
77 38 19 92 65 173 146 64 65 145 140 178 166 34 26 84 67 112 91 29 23 73 56
100 74 32 21 54 45 66 73 10 23 47 74 82 115 35 40 89 104 119 141 30 37 78
94 105 128 67 80 91 121 116 195 27 78 34 163 21 249 -15 95 -46 152 -116 219
-59 55 -293 210 -339 224 -12 3 -61 23 -109 45 -47 21 -124 49 -170 63 -45 14
-126 40 -178 59 -52 19 -165 51 -250 72 -85 21 -208 50 -272 66 -97 24 -140
29 -238 29 -115 0 -125 -2 -247 -44 -126 -43 -193 -78 -441 -233 -52 -32 -115
-76 -141 -98 -26 -22 -67 -55 -92 -73 -24 -17 -66 -50 -94 -72 -82 -65 -107
-74 -233 -78 -115 -4 -139 -1 -332 50 -41 11 -92 27 -114 34 -21 8 -86 16
-145 18 -58 2 -142 9 -186 15 -536 73 -527 71 -550 104 -8 12 -15 40 -15 62 1
68 38 117 131 173 47 28 52 28 87 -8 26 -25 38 -30 79 -30 26 0 72 -9 101 -20
59 -22 117 -26 159 -8 17 7 96 11 204 12 175 1 176 1 218 29 52 34 69 68 52
100 -6 12 -38 53 -70 91 -79 93 -113 157 -106 198 6 35 19 48 47 48 10 0 30
19 45 41 16 23 32 48 38 55 6 8 5 21 -4 37 -7 14 -11 30 -7 35 3 5 -1 15 -9
22 -8 7 -15 18 -15 24 -1 21 -61 101 -97 129 -20 15 -49 27 -65 27 -16 0 -43
7 -60 16 -17 9 -52 19 -77 23 -38 5 -47 10 -49 29 -4 29 42 129 77 167 16 17
52 68 81 115 57 93 59 109 22 193 -17 38 -25 45 -66 57 -66 18 -154 8 -208
-24 -24 -14 -84 -60 -133 -102 -108 -92 -134 -110 -156 -106 -10 2 -31 -4 -48
-12 -28 -15 -31 -15 -60 10 -17 14 -48 56 -68 92 -20 37 -56 89 -80 115 -23
27 -59 76 -79 110 -46 77 -73 107 -93 106 -9 -1 -36 -5 -60 -9z m-723 -4895
c-5 -115 -11 -244 -14 -286 -4 -51 -1 -92 8 -120 10 -33 12 -83 8 -198 l-5
-153 -39 -34 c-38 -33 -79 -44 -90 -25 -3 5 -18 12 -33 16 -16 3 -71 31 -125
61 -53 30 -108 54 -122 54 -14 0 -26 5 -26 11 0 9 -23 10 -80 6 -77 -6 -85 -9
-155 -58 -41 -28 -79 -56 -84 -63 -6 -6 -40 -70 -76 -141 -36 -72 -82 -149
-101 -173 -18 -24 -34 -52 -34 -62 0 -11 -27 -63 -60 -116 -32 -53 -61 -101
-62 -105 -4 -10 -118 30 -141 50 -10 8 -27 11 -41 7 -13 -3 -41 0 -62 8 -22 7
-68 16 -104 20 -36 3 -103 16 -150 27 -104 26 -208 22 -252 -11 -15 -11 -30
-20 -34 -20 -3 0 -43 -18 -89 -40 -80 -40 -117 -69 -127 -100 -6 -19 99 -158
149 -197 21 -17 49 -33 63 -37 79 -22 81 -25 74 -75 -10 -70 -38 -115 -88
-145 -24 -14 -66 -51 -92 -82 -26 -30 -67 -67 -91 -81 -61 -35 -99 -109 -87
-167 14 -64 66 -94 177 -102 81 -6 88 -9 93 -30 5 -18 15 -25 43 -29 20 -3 67
-11 104 -17 80 -13 77 4 23 -171 -45 -149 -47 -209 -9 -289 32 -67 52 -79 145
-86 78 -5 95 3 217 108 57 49 80 62 122 70 77 15 89 13 89 -12 0 -12 8 -46 18
-77 23 -76 87 -141 165 -170 58 -21 131 -27 154 -13 25 16 53 103 53 167 0 53
6 75 36 134 61 120 131 163 262 162 77 -1 92 2 146 30 34 17 69 38 78 46 22
19 46 115 30 121 -7 2 -28 34 -48 72 -28 54 -64 96 -165 194 -71 69 -134 138
-140 153 -5 15 -9 63 -8 107 0 45 -2 98 -6 119 -6 30 -2 49 16 87 21 44 29 52
73 66 126 42 239 -18 472 -250 77 -78 172 -168 210 -200 103 -88 246 -245 287
-314 25 -43 41 -88 52 -145 9 -45 25 -110 35 -145 11 -34 20 -72 20 -83 0 -11
10 -39 21 -62 15 -29 28 -86 40 -182 9 -77 25 -192 34 -255 18 -118 15 -251
-5 -335 -10 -39 -19 -109 -40 -306 -11 -98 -28 -155 -130 -434 -52 -142 -136
-321 -289 -610 -76 -144 -140 -247 -248 -403 -56 -80 -208 -218 -283 -257 -19
-10 -51 -29 -70 -43 -19 -14 -60 -44 -90 -66 -30 -22 -71 -54 -90 -71 -44 -40
-157 -78 -490 -166 -110 -30 -410 -30 -531 -1 -46 11 -106 23 -134 27 -51 7
-279 81 -331 108 -17 8 -48 18 -69 22 -22 4 -60 20 -85 36 -25 16 -78 42 -117
58 -77 32 -230 119 -278 158 -16 14 -95 84 -174 156 -214 196 -365 393 -455
593 -66 145 -116 278 -116 306 0 13 -13 67 -30 118 -16 52 -30 113 -30 135 0
22 -8 63 -16 90 -13 38 -17 102 -20 275 -5 333 29 652 93 885 14 50 38 138 53
196 24 90 91 243 140 319 5 8 31 65 58 125 27 61 63 142 80 181 18 39 32 74
32 78 0 26 117 189 205 286 57 63 144 162 192 220 157 190 245 264 538 452
105 67 160 95 337 168 42 17 98 47 123 66 32 25 59 37 94 41 42 5 58 14 113
63 58 52 185 130 212 130 7 0 38 22 71 50 32 27 74 55 92 61 18 6 33 15 33 20
0 5 57 54 128 109 156 124 259 209 332 276 30 29 83 65 116 82 37 19 74 47 94
72 33 42 106 95 220 162 61 36 65 37 81 20 15 -15 16 -37 7 -227z"/>
</g>
</svg>
